<svg width="601" height="614" viewBox="0 0 601 614" fill="none" xmlns="http://www.w3.org/2000/svg">
<path d="M149.227 0L297.651 466.496H303.349L452.073 0H596L384.307 614H216.992L5 0H149.227Z" fill="#890000"/>
<path d="M57.9318 343V270.273H82.5057C88.1875 270.273 92.8513 271.243 96.4972 273.185C100.143 275.102 102.842 277.742 104.594 281.104C106.346 284.465 107.222 288.289 107.222 292.574C107.222 296.859 106.346 300.659 104.594 303.973C102.842 307.287 100.155 309.892 96.5327 311.786C92.9105 313.656 88.2822 314.591 82.6477 314.591H62.7614V306.636H82.3636C86.2462 306.636 89.3712 306.068 91.7386 304.932C94.1297 303.795 95.858 302.186 96.9233 300.102C98.0123 297.995 98.5568 295.486 98.5568 292.574C98.5568 289.662 98.0123 287.117 96.9233 284.939C95.8343 282.761 94.0942 281.08 91.7031 279.896C89.312 278.689 86.1515 278.085 82.2216 278.085H66.7386V343H57.9318ZM92.1648 310.33L110.062 343H99.8352L82.2216 310.33H92.1648ZM121.897 343V270.273H165.789V278.085H130.703V302.659H163.516V310.472H130.703V335.188H166.357V343H121.897ZM239.333 270.273V343H230.81L191.179 285.898H190.469V343H181.662V270.273H190.185L229.958 327.517H230.668V270.273H239.333ZM256.955 343V270.273H300.847V278.085H265.762V302.659H298.575V310.472H265.762V335.188H301.415V343H256.955ZM366.437 293C365.656 290.609 364.626 288.466 363.347 286.572C362.093 284.655 360.589 283.021 358.837 281.672C357.109 280.322 355.144 279.293 352.942 278.582C350.741 277.872 348.326 277.517 345.698 277.517C341.389 277.517 337.471 278.63 333.944 280.855C330.416 283.08 327.611 286.359 325.528 290.692C323.444 295.024 322.403 300.339 322.403 306.636C322.403 312.934 323.456 318.249 325.563 322.581C327.67 326.913 330.523 330.192 334.121 332.418C337.72 334.643 341.768 335.756 346.266 335.756C350.433 335.756 354.103 334.868 357.275 333.092C360.471 331.293 362.957 328.76 364.732 325.493C366.531 322.202 367.431 318.331 367.431 313.881L370.13 314.449H348.255V306.636H375.954V314.449C375.954 320.438 374.675 325.647 372.119 330.074C369.585 334.501 366.082 337.934 361.607 340.372C357.156 342.787 352.043 343.994 346.266 343.994C339.827 343.994 334.169 342.479 329.292 339.449C324.439 336.419 320.651 332.11 317.928 326.523C315.229 320.936 313.88 314.307 313.88 306.636C313.88 300.884 314.649 295.711 316.188 291.118C317.751 286.501 319.952 282.571 322.793 279.328C325.634 276.085 328.996 273.599 332.879 271.871C336.761 270.143 341.034 269.278 345.698 269.278C349.533 269.278 353.108 269.858 356.423 271.018C359.761 272.155 362.732 273.777 365.336 275.884C367.964 277.967 370.154 280.464 371.906 283.376C373.657 286.265 374.865 289.473 375.528 293H366.437ZM391.774 270.273L413.365 331.494H414.217L435.808 270.273H445.041L418.337 343H409.246L382.541 270.273H391.774ZM478.812 343H456.369V270.273H479.807C486.862 270.273 492.899 271.729 497.918 274.641C502.937 277.529 506.784 281.684 509.459 287.105C512.134 292.503 513.472 298.966 513.472 306.494C513.472 314.07 512.122 320.592 509.423 326.061C506.724 331.506 502.795 335.696 497.634 338.632C492.473 341.544 486.199 343 478.812 343ZM465.176 335.188H478.244C484.258 335.188 489.241 334.027 493.195 331.707C497.148 329.387 500.096 326.085 502.037 321.8C503.978 317.515 504.949 312.413 504.949 306.494C504.949 300.623 503.99 295.569 502.072 291.331C500.155 287.07 497.29 283.803 493.479 281.53C489.667 279.233 484.92 278.085 479.239 278.085H465.176V335.188ZM528.244 343V270.273H572.136V278.085H537.051V302.659H569.864V310.472H537.051V335.188H572.705V343H528.244Z" fill="white"/>
<path d="M595.932 210H5V404.692H595.932V210Z" stroke="white" stroke-width="8.39908"/>
</svg>
