<svg width="344" height="408" viewBox="0 0 344 408" fill="none" xmlns="http://www.w3.org/2000/svg">
<path d="M223.099 116.516C227.586 116.516 231.228 112.883 231.228 108.387C231.228 103.892 227.586 100.258 223.099 100.258H111.486C106.999 100.258 103.357 103.891 103.357 108.387C103.357 112.882 106.999 116.516 111.486 116.516H223.099Z" fill="#010002"/>
<path d="M335.062 100.259H279.69C275.203 100.259 271.561 103.892 271.561 108.388C271.561 112.883 275.203 116.517 279.69 116.517H326.933V391.198H16.5192V116.516H61.0552C65.5422 116.516 69.1842 112.883 69.1842 108.387C69.1842 103.892 65.5422 100.258 61.0552 100.258H8.3912C3.9042 100.258 0.262207 103.891 0.262207 108.387V399.325C0.262207 403.82 3.9042 407.454 8.3912 407.454H335.062C339.549 407.454 343.191 403.821 343.191 399.325V108.387C343.191 103.892 339.557 100.259 335.062 100.259Z" fill="#010002"/>
<path d="M250.59 134.796C255.077 134.796 258.719 131.163 258.719 126.667V67.394C258.718 30.238 218.604 0 169.101 0C119.793 0 79.687 30.238 79.687 67.394V126.668C79.687 131.163 83.329 134.797 87.816 134.797C92.303 134.797 95.945 131.164 95.945 126.668V67.394C95.945 39.196 128.768 16.257 169.305 16.257C209.639 16.257 242.462 39.196 242.462 67.394V126.668C242.461 131.163 246.095 134.796 250.59 134.796Z" fill="#010002"/>
<path d="M66.8921 147.566C66.8921 159.092 76.2811 168.474 87.8151 168.474C99.3491 168.474 108.738 159.093 108.738 147.566C108.738 143.071 105.096 139.438 100.609 139.438C96.1221 139.438 92.4801 143.07 92.4801 147.566C92.4801 150.127 90.3911 152.217 87.8141 152.217C85.2451 152.217 83.1481 150.127 83.1481 147.566C83.1481 143.071 79.5061 139.438 75.0191 139.438C70.5321 139.438 66.8921 143.071 66.8921 147.566Z" fill="#010002"/>
<path d="M250.59 168.474C262.124 168.474 271.513 159.093 271.513 147.566C271.513 143.071 267.871 139.438 263.384 139.438C258.897 139.438 255.255 143.07 255.255 147.566C255.255 150.127 253.166 152.217 250.589 152.217C248.012 152.217 245.923 150.127 245.923 147.566C245.923 143.071 242.281 139.438 237.794 139.438C233.307 139.438 229.665 143.07 229.665 147.566C229.667 159.092 239.055 168.474 250.59 168.474Z" fill="#010002"/>
</svg>
